<svg xmlns="http://www.w3.org/2000/svg" viewBox="0 0 24 24" width="48" height="48">
  <path fill="#003087" d="M20.067 8.478c.492.315.844.843.967 1.496.363 1.578.046 3.656-.935 5.22-.863 1.386-2.23 2.22-3.84 2.22h-.34l-.32 2.02c-.05.314-.328.54-.646.54H12.87a.532.532 0 0 1-.526-.616l.013-.076 1.1-6.979h1.008c2.515 0 4.064-1.258 4.603-3.327zM6.552 8.604l-1.3 8.233c-.05.314-.328.54-.646.54H2.522a.532.532 0 0 1-.526-.616l.013-.076 1.3-8.233c.05-.314.328-.54.646-.54h2.084c.287 0 .524.228.526.515a.538.538 0 0 1-.013.177z"/>
  <path fill="#009cde" d="M9.145 8.604l-1.3 8.233c-.05.314-.328.54-.646.54H5.115a.532.532 0 0 1-.526-.616l.013-.076 1.3-8.233c.05-.314.328-.54.646-.54h2.084c.287 0 .524.228.526.515a.538.538 0 0 1-.013.177z"/>
  <path fill="#003087" d="M17.16 4.153c.493.315.845.843.968 1.496.362 1.578.046 3.656-.935 5.22-.863 1.386-2.23 2.22-3.84 2.22h-.34l-.32 2.02c-.05.314-.328.54-.646.54H9.964a.532.532 0 0 1-.526-.616l.013-.076 1.1-6.979h1.008c2.515 0 4.064-1.258 4.603-3.327.274-1.05.16-1.884-.335-2.498z"/>
</svg>
