<svg xmlns="http://www.w3.org/2000/svg" viewBox="0 0 24 24" width="24" height="24">
  <!-- WhatsApp icon with premium styling and enhanced 3D effect -->
  <defs>
    <!-- Enhanced vibrant gradient -->
    <linearGradient id="whatsappGradient" x1="10%" y1="10%" x2="90%" y2="90%">
      <stop offset="0%" stop-color="#2BEA74" />
      <stop offset="50%" stop-color="#25D366" />
      <stop offset="100%" stop-color="#0E8C6A" />
    </linearGradient>

    <!-- Improved outer shadow -->
    <filter id="outerShadow" x="-20%" y="-20%" width="140%" height="140%">
      <feDropShadow dx="0" dy="0.5" stdDeviation="0.8" flood-color="#000000" flood-opacity="0.35" />
    </filter>

    <!-- Enhanced inner glow -->
    <filter id="innerGlow" x="-50%" y="-50%" width="200%" height="200%">
      <feGaussianBlur stdDeviation="1.2" result="blur" />
      <feComposite in="SourceGraphic" in2="blur" operator="over" />
    </filter>

    <!-- Subtle texture overlay -->
    <pattern id="noisePattern" width="100" height="100" patternUnits="userSpaceOnUse">
      <rect width="100" height="100" fill="url(#whatsappGradient)"/>
      <filter id="noise">
        <feTurbulence type="fractalNoise" baseFrequency="0.65" numOctaves="3" stitchTiles="stitch"/>
        <feColorMatrix type="matrix" values="1 0 0 0 0 0 1 0 0 0 0 0 1 0 0 0 0 0 0.05 0"/>
      </filter>
      <rect width="100" height="100" filter="url(#noise)" opacity="0.1"/>
    </pattern>
  </defs>

  <!-- Base circle with enhanced gradient and texture -->
  <circle cx="12" cy="12" r="11" fill="url(#whatsappGradient)" filter="url(#outerShadow)" />
  <circle cx="12" cy="12" r="10.5" fill="url(#noisePattern)" opacity="0.7" />

  <!-- Improved 3D effect with multiple highlights -->
  <ellipse cx="9" cy="9" rx="7" ry="6.5" fill="rgba(255,255,255,0.25)" />
  <ellipse cx="8.5" cy="8.5" rx="3" ry="2.5" fill="rgba(255,255,255,0.2)" />

  <!-- Modern WhatsApp logo with smoother curves -->
  <path fill="#FFFFFF" d="M17.6,14.2c-0.3-0.15-1.6-0.8-1.85-0.9c-0.25-0.1-0.44-0.15-0.62,0.15c-0.18,0.3-0.7,0.9-0.86,1.08c-0.16,0.18-0.32,0.2-0.62,0.07c-0.3-0.15-1.26-0.46-2.4-1.48c-0.88-0.79-1.48-1.76-1.66-2.06c-0.18-0.3-0.02-0.46,0.13-0.61c0.14-0.14,0.3-0.35,0.45-0.52c0.15-0.17,0.2-0.3,0.3-0.5c0.1-0.2,0.05-0.37-0.02-0.52c-0.08-0.15-0.62-1.5-0.85-2.06c-0.22-0.54-0.45-0.47-0.62-0.47c-0.16-0.01-0.34-0.01-0.52-0.01c-0.18,0-0.48,0.07-0.73,0.35c-0.25,0.28-0.95,0.94-0.95,2.3c0,1.36,0.99,2.67,1.12,2.86c0.13,0.19,1.8,2.95,4.47,4.07c0.62,0.27,1.11,0.44,1.49,0.56c0.63,0.2,1.2,0.17,1.65,0.1c0.5-0.08,1.55-0.64,1.77-1.25c0.22-0.61,0.22-1.14,0.15-1.25C18.05,14.42,17.9,14.35,17.6,14.2z" filter="url(#innerGlow)" />

  <!-- Premium edge highlight -->
  <circle cx="12" cy="12" r="10.2" fill="none" stroke="rgba(255,255,255,0.3)" stroke-width="0.15" />

  <!-- Subtle bottom shadow for depth -->
  <ellipse cx="12" cy="17.5" rx="7" ry="1.5" fill="rgba(0,0,0,0.15)" opacity="0.5" />
</svg>
