<?xml version="1.0" encoding="UTF-8"?>
<svg width="64" height="64" viewBox="0 0 64 64" fill="none" xmlns="http://www.w3.org/2000/svg" role="img" aria-label="WhatsApp">
  <defs>
    <linearGradient id="waGrad" x1="8" y1="56" x2="56" y2="8" gradientUnits="userSpaceOnUse">
      <stop offset="0%" stop-color="#25D366"/>
      <stop offset="60%" stop-color="#20C659"/>
      <stop offset="100%" stop-color="#128C7E"/>
    </linearGradient>
    <radialGradient id="waHighlight" cx="0" cy="0" r="1" gradientUnits="userSpaceOnUse" gradientTransform="translate(20 16) rotate(45) scale(28)">
      <stop offset="0%" stop-color="#FFFFFF" stop-opacity="0.35"/>
      <stop offset="100%" stop-color="#FFFFFF" stop-opacity="0"/>
    </radialGradient>
    <filter id="softShadow" x="-20%" y="-20%" width="140%" height="140%" color-interpolation-filters="sRGB">
      <feDropShadow dx="0" dy="3" stdDeviation="4" flood-color="#0B3B2E" flood-opacity="0.35"/>
    </filter>
  </defs>

  <!-- Outer rounded shape with gradient and subtle shadow -->
  <g filter="url(#softShadow)">
    <rect x="4" y="4" width="56" height="56" rx="16" fill="url(#waGrad)"/>
    <rect x="4" y="4" width="56" height="56" rx="16" fill="url(#waHighlight)"/>
    <rect x="4.5" y="4.5" width="55" height="55" rx="15.5" stroke="#FFFFFF" stroke-opacity="0.12"/>
  </g>

  <!-- Chat bubble circle -->
  <g transform="translate(0 0)">
    <circle cx="32" cy="32" r="16.5" fill="#FFFFFF" fill-opacity="0.98"/>
    <path d="M20.5 45.5L22.7 39.3C20.94 36.98 20 34.19 20 31.3C20 23.8 26.28 17.5 33.9 17.5C41.52 17.5 47.8 23.8 47.8 31.3C47.8 38.8 41.52 45.1 33.9 45.1C31.1 45.1 28.53 44.43 26.39 43.27L20.5 45.5Z" fill="#FFFFFF"/>
    <path d="M20.5 45.5L22.7 39.3C20.94 36.98 20 34.19 20 31.3C20 23.8 26.28 17.5 33.9 17.5C41.52 17.5 47.8 23.8 47.8 31.3C47.8 38.8 41.52 45.1 33.9 45.1C31.1 45.1 28.53 44.43 26.39 43.27L20.5 45.5Z" stroke="#0F7A6A" stroke-opacity="0.08"/>
  </g>

  <!-- Stylized handset path -->
  <path d="M41.7 36.1c-.4-1.1-1.8-1.8-2.9-2.1-1.1-.3-2.3-.2-2.6.2-.3.4-1.1 1.3-1.5 1.7-.3.3-.8.3-1.3.2-2.3-.8-4.2-2.2-5.7-4.2-1.1-1.4-2-2.9-2.5-4.6-.1-.5 0-1 .3-1.3.4-.4 1.2-1.1 1.6-1.6.5-.5.6-1.3.4-2-.2-.7-1.7-4.1-2.2-4.9-.5-.8-1.1-1.1-1.9-1.1h-.8c-.6 0-1.2.4-1.6.8-1.7 1.7-2.6 4-2.6 6.3 0 .9.1 1.7.3 2.5 1 3.7 3.3 7.1 6.2 10 2.9 2.9 6.4 5.1 10 6.2.8.2 1.7.3 2.5.3 2.3 0 4.6-.9 6.3-2.6.4-.4.8-1 .8-1.6v-.8c0-.8-.3-1.4-1.1-1.9-.7-.4-4.2-2-4.9-2.2-.7-.2-1.5-.1-2 .4z" fill="#25D366"/>
  <path d="M41.7 36.1c-.4-1.1-1.8-1.8-2.9-2.1-1.1-.3-2.3-.2-2.6.2-.3.4-1.1 1.3-1.5 1.7-.3.3-.8.3-1.3.2-2.3-.8-4.2-2.2-5.7-4.2-1.1-1.4-2-2.9-2.5-4.6-.1-.5 0-1 .3-1.3.4-.4 1.2-1.1 1.6-1.6.5-.5.6-1.3.4-2-.2-.7-1.7-4.1-2.2-4.9-.5-.8-1.1-1.1-1.9-1.1h-.8c-.6 0-1.2.4-1.6.8-1.7 1.7-2.6 4-2.6 6.3 0 .9.1 1.7.3 2.5 1 3.7 3.3 7.1 6.2 10 2.9 2.9 6.4 5.1 10 6.2.8.2 1.7.3 2.5.3 2.3 0 4.6-.9 6.3-2.6.4-.4.8-1 .8-1.6v-.8c0-.8-.3-1.4-1.1-1.9-.7-.4-4.2-2-4.9-2.2-.7-.2-1.5-.1-2 .4z" fill="#128C7E" fill-opacity="0.2"/>

  <!-- Shine line -->
  <path d="M12 20c6-6 20-10 30-8" stroke="#FFFFFF" stroke-opacity="0.25" stroke-linecap="round"/>
</svg>
