<svg width="800" height="400" xmlns="http://www.w3.org/2000/svg">
  <defs>
    <linearGradient id="skyGrad33" x1="0%" y1="0%" x2="0%" y2="100%">
      <stop offset="0%" style="stop-color:#32CD32;stop-opacity:1" />
      <stop offset="50%" style="stop-color:#228B22;stop-opacity:1" />
      <stop offset="100%" style="stop-color:#4682B4;stop-opacity:1" />
    </linearGradient>
    <linearGradient id="groundGrad33" x1="0%" y1="0%" x2="0%" y2="100%">
      <stop offset="0%" style="stop-color:#4682B4;stop-opacity:1" />
      <stop offset="100%" style="stop-color:#8B4513;stop-opacity:1" />
    </linearGradient>
    <filter id="blur33">
      <feGaussianBlur in="SourceGraphic" stdDeviation="2"/>
    </filter>
  </defs>
  
  <!-- Sky Background -->
  <rect width="100%" height="70%" fill="url(#skyGrad33)"/>
  
  <!-- Ground/Water Background -->
  <rect x="0" y="70%" width="100%" height="30%" fill="url(#groundGrad33)"/>
  
  
  <!-- Tree Trunks -->
  <rect x="50" y="200" width="8" height="80" fill="#8B4513"/>
  <rect x="150" y="180" width="10" height="100" fill="#8B4513"/>
  <rect x="250" y="190" width="9" height="90" fill="#8B4513"/>
  <rect x="350" y="185" width="11" height="95" fill="#8B4513"/>
  <rect x="450" y="195" width="8" height="85" fill="#8B4513"/>
  <rect x="550" y="180" width="10" height="100" fill="#8B4513"/>
  <rect x="650" y="190" width="9" height="90" fill="#8B4513"/>
  <rect x="750" y="185" width="8" height="95" fill="#8B4513"/>
  
  <!-- Tree Canopies -->
  <circle cx="54" cy="200" r="25" fill="#228B22" opacity="0.8"/>
  <circle cx="155" cy="180" r="30" fill="#228B22" opacity="0.9"/>
  <circle cx="255" cy="190" r="28" fill="#228B22" opacity="0.8"/>
  <circle cx="355" cy="185" r="32" fill="#228B22" opacity="0.9"/>
  <circle cx="455" cy="195" r="26" fill="#228B22" opacity="0.8"/>
  <circle cx="555" cy="180" r="29" fill="#228B22" opacity="0.9"/>
  <circle cx="655" cy="190" r="27" fill="#228B22" opacity="0.8"/>
  <circle cx="755" cy="185" r="25" fill="#228B22" opacity="0.9"/>
  
  <!-- Sun Rays -->
  <circle cx="400" cy="50" r="15" fill="#FFD700" opacity="0.7"/>
    
  
  <!-- Overlay for depth -->
  <rect width="100%" height="100%" fill="rgba(0,0,0,0.1)" opacity="0.3"/>
</svg>