<svg width="800" height="400" xmlns="http://www.w3.org/2000/svg">
  <defs>
    <linearGradient id="skyGrad18" x1="0%" y1="0%" x2="0%" y2="100%">
      <stop offset="0%" style="stop-color:#8B4513;stop-opacity:1" />
      <stop offset="50%" style="stop-color:#D2691E;stop-opacity:1" />
      <stop offset="100%" style="stop-color:#FF6347;stop-opacity:1" />
    </linearGradient>
    <linearGradient id="groundGrad18" x1="0%" y1="0%" x2="0%" y2="100%">
      <stop offset="0%" style="stop-color:#FF6347;stop-opacity:1" />
      <stop offset="100%" style="stop-color:#F5DEB3;stop-opacity:1" />
    </linearGradient>
    <filter id="blur18">
      <feGaussianBlur in="SourceGraphic" stdDeviation="2"/>
    </filter>
  </defs>
  
  <!-- Sky Background -->
  <rect width="100%" height="70%" fill="url(#skyGrad18)"/>
  
  <!-- Ground/Water Background -->
  <rect x="0" y="70%" width="100%" height="30%" fill="url(#groundGrad18)"/>
  
  
  <!-- Sand Dunes -->
  <path d="M0,250 L200,200 L400,240 L600,190 L800,230 L800,400 L0,400 Z" fill="#D2691E" opacity="0.9"/>
  <path d="M0,270 L150,220 L350,260 L550,210 L800,250 L800,400 L0,400 Z" fill="#FF6347" opacity="0.7"/>
  
  <!-- Cactus -->
  <rect x="100" y="200" width="8" height="60" fill="#F5DEB3"/>
  <rect x="95" y="220" width="18" height="4" fill="#F5DEB3"/>
  <rect x="95" y="240" width="18" height="4" fill="#F5DEB3"/>
  
  <rect x="300" y="190" width="6" height="70" fill="#F5DEB3"/>
  <rect x="295" y="210" width="16" height="3" fill="#F5DEB3"/>
  <rect x="295" y="230" width="16" height="3" fill="#F5DEB3"/>
  
  <!-- Sun -->
  <circle cx="650" cy="80" r="30" fill="#FF6347" opacity="0.9"/>
    
  
  <!-- Overlay for depth -->
  <rect width="100%" height="100%" fill="rgba(0,0,0,0.1)" opacity="0.3"/>
</svg>