<svg xmlns="http://www.w3.org/2000/svg" width="1200" height="630" viewBox="0 0 1200 630" role="img" aria-label="Ilustrasi pantai tropis 2">
  <defs>
    <linearGradient id="sky2" x1="0" y1="0" x2="0" y2="1">
      <stop offset="0%" stop-color="#81d4fa"/>
      <stop offset="100%" stop-color="#c8e6c9"/>
    </linearGradient>
    <linearGradient id="sea2" x1="0" y1="0" x2="0" y2="1">
      <stop offset="0%" stop-color="#0097a7"/>
      <stop offset="100%" stop-color="#00bcd4"/>
    </linearGradient>
    <linearGradient id="sand2" x1="0" y1="0" x2="0" y2="1">
      <stop offset="0%" stop-color="#ffecb3"/>
      <stop offset="100%" stop-color="#ffc107"/>
    </linearGradient>
  </defs>
  <rect width="1200" height="630" fill="url(#sky2)"/>
  <circle cx="150" cy="110" r="50" fill="#fff59d"/>
  <rect x="0" y="300" width="1200" height="180" fill="url(#sea2)"/>
  <rect x="0" y="480" width="1200" height="150" fill="url(#sand2)"/>
  <path d="M0,470 C250,460 500,510 750,490 C950,475 1100,520 1200,500 L1200,630 L0,630 Z" fill="#ffe082" opacity="0.8"/>
  <g transform="translate(980,360)">
    <path d="M0,120 C20,40 70,10 120,15 C80,45 50,85 30,120 Z" fill="#43a047"/>
    <rect x="20" y="120" width="18" height="90" fill="#6d4c41"/>
  </g>
</svg>
