<svg xmlns="http://www.w3.org/2000/svg" viewBox="0 0 122.5 60" width="122.5" height="60">
  <!-- Official Bitcoin logo based on brand guidelines -->
  <g transform="translate(41, 10)">
    <!-- Bitcoin symbol -->
    <circle cx="20" cy="20" r="20" fill="#F7931A"/>
    <path d="M30.1,18.8c0.4-2.6-1.6-4-4.3-4.9l0.9-3.6l-2.1-0.5l-0.9,3.4c-0.6-0.1-1.1-0.3-1.7-0.4l0.9-3.5l-2.1-0.5l-0.9,3.6c-0.5-0.1-0.9-0.2-1.4-0.3l0-0.1l-2.9-0.7l-0.6,2.3c0,0,1.6,0.4,1.5,0.4c0.9,0.2,1,0.8,1,1.2l-1,4c0.1,0,0.2,0.1,0.3,0.1c-0.1,0-0.2-0.1-0.3-0.1l-1.4,5.6c-0.1,0.3-0.4,0.7-1,0.5c0,0-1.5-0.4-1.5-0.4l-1,2.3l2.7,0.7c0.5,0.1,1,0.3,1.5,0.4l-0.9,3.6l2.1,0.5l0.9-3.6c0.6,0.2,1.1,0.3,1.7,0.4l-0.9,3.5l2.1,0.5l0.9-3.6c3.7,0.7,6.4,0.4,7.6-2.9c0.9-2.7,0-4.2-1.9-5.2C28.7,21.9,29.8,20.8,30.1,18.8z M25.7,25.9c-0.7,2.7-5.1,1.2-6.5,0.9l1.2-4.6C21.7,22.5,26.4,23.1,25.7,25.9z M26.4,18.7c-0.6,2.4-4.3,1.2-5.5,0.9l1.1-4.1C23.1,15.8,27,16.2,26.4,18.7z" fill="white"/>
  </g>
</svg>
