<svg xmlns="http://www.w3.org/2000/svg" viewBox="0 0 122.5 60" width="122.5" height="60">
  <!-- Official eBay logo based on brand guidelines -->
  <g transform="translate(30, 20)">
    <!-- e -->
    <path d="M0,10.1c0,4.1,2.6,7.1,7.2,7.1c1.8,0,3.3-0.4,4.5-1.1v-4.6c-1.1,1-2.3,1.6-3.9,1.6c-2.5,0-4.1-1.5-4.1-4.3h9.1v-1.5c0-4.2-2.3-7-6.7-7C2.5,0.3,0,3.5,0,10.1z M3.8,6.6c0-2,1.2-3.1,2.9-3.1c1.7,0,2.8,1.1,2.8,3.1H3.8z" fill="#e53238"/>
    <!-- b -->
    <path d="M13.9,0.6h3.5v2.2c0.8-1.6,2.1-2.5,4.1-2.5c3.1,0,4.9,2.1,4.9,5.9v10.6h-3.7V7.1c0-2.1-0.7-3.1-2.4-3.1c-1.6,0-2.7,1.2-2.7,3.3v9.5h-3.7V0.6z" fill="#0064d2"/>
    <!-- a -->
    <path d="M28.1,10.1c0,4.1,2.6,7.1,7.2,7.1c1.8,0,3.3-0.4,4.5-1.1v-4.6c-1.1,1-2.3,1.6-3.9,1.6c-2.5,0-4.1-1.5-4.1-4.3h9.1v-1.5c0-4.2-2.3-7-6.7-7C30.6,0.3,28.1,3.5,28.1,10.1z M31.9,6.6c0-2,1.2-3.1,2.9-3.1c1.7,0,2.8,1.1,2.8,3.1H31.9z" fill="#f5af02"/>
    <!-- y -->
    <path d="M42.1,0.6h3.5v2.2c0.8-1.6,2.1-2.5,4.1-2.5c3.1,0,4.9,2.1,4.9,5.9v10.6h-3.7V7.1c0-2.1-0.7-3.1-2.4-3.1c-1.6,0-2.7,1.2-2.7,3.3v9.5h-3.7V0.6z" fill="#86b817"/>
  </g>
</svg>
