<?xml version="1.0" encoding="UTF-8" standalone="no"?>
<svg xmlns="http://www.w3.org/2000/svg" viewBox="0 0 300 120" width="300" height="120">
  <!-- eBay logo based on the provided image URL -->
  <g fill="none" fill-rule="evenodd">
    <!-- Background rectangle for the logo -->
    <rect x="20" y="30" width="260" height="60" rx="5" fill="#FFFFFF"/>

    <!-- e - red -->
    <path fill="#E53238" d="M45,50c-12,0-18,6-18,15c0,9,6,15,18,15c12,0,16-7,16-7h-8c0,0-2,3-8,3c-5,0-9-3-9-7h25v-4C61,55,55,50,45,50z M45,56c5,0,8,3,8,6H36C36,59,40,56,45,56z"/>

    <!-- b - blue -->
    <path fill="#0064D2" d="M75,35h8v15h0.2c1-2,5-5,11-5c8,0,14,6,14,15c0,9-6,15-14,15c-6,0-10-3-11-5H83v4h-8V35z M92,67c5,0,8-4,8-10c0-5-3-9-8-9c-5,0-8,4-8,9C84,63,87,67,92,67z"/>

    <!-- a - yellow/orange -->
    <path fill="#F5AF02" d="M120,50c-10,0-15,5-15,11c0,7,4,10,12,11c7,1,9,2,9,4c0,3-3,4-7,4c-5,0-8-2-8-5h-8c0,7,5,11,16,11c8,0,15-3,15-11c0-7-4-10-13-12c-7-1-8-2-8-4c0-2,2-4,7-4c4,0,7,2,7,5h8C135,54,130,50,120,50z"/>

    <!-- y - green -->
    <path fill="#86B817" d="M140,50h9l10,22h0.2l9-22h9l-18,40h-8l5-11L140,50z"/>
  </g>
</svg>
