<svg xmlns="http://www.w3.org/2000/svg" viewBox="0 0 122.5 60" width="122.5" height="60">
  <!-- Official MasterCard logo based on brand guidelines -->
  <g transform="translate(36, 20)">
    <!-- MasterCard overlapping circles -->
    <circle cx="19.5" cy="10" r="10" fill="#EB001B"/>
    <circle cx="30.5" cy="10" r="10" fill="#F79E1B"/>
    <path d="M25,16.7c-1.7,1.4-3.8,2.3-6.2,2.3c-5.2,0-9.5-4.3-9.5-9.5c0-5.2,4.3-9.5,9.5-9.5c2.3,0,4.5,0.8,6.2,2.3c1.7-1.4,3.8-2.3,6.2-2.3c5.2,0,9.5,4.3,9.5,9.5c0,5.2-4.3,9.5-9.5,9.5C28.8,19,26.7,18.2,25,16.7z" fill="#FF5F00"/>
    <!-- MasterCard text -->
    <path d="M0,25.5v-2.8h1.1l1.3,2.1l1.3-2.1h1.1v2.8H4v-2.1l-1.2,2.1h-0.7l-1.2-2.1v2.1H0z" fill="#000000"/>
    <path d="M5.7,25.5v-2.8h2.9v0.6H6.5v0.5h1.9v0.6H6.5v0.5h2.1v0.6H5.7z" fill="#000000"/>
    <path d="M9.4,25.5v-2.8h0.8l1.6,1.9v-1.9h0.8v2.8h-0.8l-1.6-1.9v1.9H9.4z" fill="#000000"/>
    <path d="M13.5,25.5v-2.8h0.8v2.2h1.9v0.6H13.5z" fill="#000000"/>
    <path d="M16.7,25.5v-2.8h2.9v0.6h-2.1v0.5h1.9v0.6h-1.9v0.5h2.1v0.6H16.7z" fill="#000000"/>
    <path d="M20.4,25.5v-2.8h1.7c0.4,0,0.7,0.1,0.9,0.3c0.2,0.2,0.3,0.4,0.3,0.7c0,0.2-0.1,0.4-0.2,0.6c-0.1,0.2-0.3,0.3-0.5,0.3c0.3,0.1,0.5,0.2,0.6,0.3c0.1,0.2,0.2,0.4,0.2,0.6c0,0.3-0.1,0.6-0.3,0.7c-0.2,0.2-0.5,0.3-0.9,0.3H20.4z M21.2,23.9h0.9c0.2,0,0.3,0,0.4-0.1c0.1-0.1,0.1-0.2,0.1-0.3c0-0.1,0-0.2-0.1-0.3c-0.1-0.1-0.2-0.1-0.4-0.1h-0.9V23.9z M21.2,25h1c0.2,0,0.3,0,0.4-0.1c0.1-0.1,0.1-0.2,0.1-0.3c0-0.1,0-0.2-0.1-0.3c-0.1-0.1-0.2-0.1-0.4-0.1h-1V25z" fill="#000000"/>
    <path d="M24.2,25.5v-2.8h0.8v2.8H24.2z" fill="#000000"/>
    <path d="M26.1,25.5v-2.8h0.8l1.6,1.9v-1.9h0.8v2.8h-0.8l-1.6-1.9v1.9H26.1z" fill="#000000"/>
    <path d="M30.2,25.5v-2.8h2.9v0.6h-2.1v0.5H33v0.6h-1.9v0.5h2.1v0.6H30.2z" fill="#000000"/>
    <path d="M34,25.5v-2.8h0.8v2.2h1.9v0.6H34z" fill="#000000"/>
    <path d="M37.2,25.5v-2.8h2.9v0.6H38v0.5h1.9v0.6H38v0.5h2.1v0.6H37.2z" fill="#000000"/>
    <path d="M40.9,25.5v-2.8h1.7c0.4,0,0.7,0.1,0.9,0.3c0.2,0.2,0.3,0.4,0.3,0.7c0,0.2-0.1,0.4-0.2,0.6c-0.1,0.2-0.3,0.3-0.5,0.3c0.3,0.1,0.5,0.2,0.6,0.3c0.1,0.2,0.2,0.4,0.2,0.6c0,0.3-0.1,0.6-0.3,0.7c-0.2,0.2-0.5,0.3-0.9,0.3H40.9z M41.7,23.9h0.9c0.2,0,0.3,0,0.4-0.1c0.1-0.1,0.1-0.2,0.1-0.3c0-0.1,0-0.2-0.1-0.3c-0.1-0.1-0.2-0.1-0.4-0.1h-0.9V23.9z M41.7,25h1c0.2,0,0.3,0,0.4-0.1c0.1-0.1,0.1-0.2,0.1-0.3c0-0.1,0-0.2-0.1-0.3c-0.1-0.1-0.2-0.1-0.4-0.1h-1V25z" fill="#000000"/>
  </g>
</svg>
