<svg width="878" height="164" viewBox="0 0 878 164" fill="none" xmlns="http://www.w3.org/2000/svg">
<path d="M305.999 104H288.936L236.388 32.124V104H218.721V3.28299H236.841L288.332 73.196V3.28299H305.999V104ZM390.367 104H374.512V96.148C368.874 102.591 361.022 105.812 350.956 105.812C344.312 105.812 338.423 103.698 333.289 99.47C328.155 95.1413 325.588 89.202 325.588 81.652C325.588 73.9007 328.104 68.0117 333.138 63.985C338.272 59.9583 344.211 57.945 350.956 57.945C361.324 57.945 369.176 61.0657 374.512 67.307V56.435C374.512 52.207 372.951 48.885 369.831 46.469C366.71 44.053 362.583 42.845 357.449 42.845C349.295 42.845 342.097 45.9153 335.856 52.056L329.363 41.033C337.617 33.181 347.835 29.255 360.016 29.255C368.975 29.255 376.273 31.369 381.911 35.597C387.548 39.825 390.367 46.5193 390.367 55.68V104ZM357.147 94.94C365.099 94.94 370.888 92.4233 374.512 87.39V76.367C370.888 71.3337 365.099 68.817 357.147 68.817C352.617 68.817 348.892 70.025 345.973 72.441C343.053 74.857 341.594 78.028 341.594 81.954C341.594 85.88 343.053 89.051 345.973 91.467C348.892 93.7823 352.617 94.94 357.147 94.94ZM519.19 104H503.335V56.435C503.335 47.677 499.358 43.298 491.406 43.298C488.084 43.298 484.862 44.2543 481.742 46.167C478.621 48.0797 476.205 50.3447 474.494 52.962V104H458.639V56.435C458.639 47.677 454.612 43.298 446.559 43.298C443.337 43.298 440.166 44.2543 437.046 46.167C434.026 48.0797 431.61 50.395 429.798 53.113V104H413.943V31.067H429.798V41.033C431.61 38.315 434.73 35.6977 439.16 33.181C443.69 30.5637 448.471 29.255 453.505 29.255C464.075 29.255 470.719 33.7347 473.437 42.694C475.752 39.07 479.175 35.9493 483.705 33.332C488.235 30.614 493.067 29.255 498.201 29.255C512.193 29.255 519.19 36.6037 519.19 51.301V104ZM576.42 105.812C565.347 105.812 556.186 102.289 548.938 95.242C541.791 88.0947 538.217 78.8333 538.217 67.458C538.217 56.7873 541.69 47.7777 548.636 40.429C555.683 32.9797 564.541 29.255 575.212 29.255C585.983 29.255 594.641 32.9797 601.184 40.429C607.828 47.8783 611.15 57.3913 611.15 68.968V72.743H554.827C555.431 78.481 557.797 83.2627 561.924 87.088C566.051 90.9133 571.437 92.826 578.081 92.826C581.806 92.826 585.53 92.1213 589.255 90.712C593.08 89.3027 596.251 87.3397 598.768 84.823L606.016 95.242C598.667 102.289 588.802 105.812 576.42 105.812ZM595.748 61.569C595.547 56.5357 593.684 52.056 590.161 48.13C586.738 44.204 581.755 42.241 575.212 42.241C568.971 42.241 564.088 44.204 560.565 48.13C557.042 51.9553 555.079 56.435 554.676 61.569H595.748Z" fill="#00ADF2"/>
<path d="M664.701 105.812C647.386 105.812 633.746 100.477 623.78 89.806L633.595 76.216C642.252 85.4773 652.872 90.108 665.456 90.108C672.2 90.108 677.234 88.749 680.556 86.031C683.978 83.313 685.69 80.0917 685.69 76.367C685.69 72.5417 683.676 69.5217 679.65 67.307C675.623 64.9917 670.741 63.1797 665.003 61.871C659.265 60.5623 653.476 59.002 647.638 57.19C641.9 55.378 637.017 52.3077 632.991 47.979C628.964 43.6503 626.951 38.0633 626.951 31.218C626.951 22.762 630.323 15.7657 637.068 10.229C643.913 4.59166 652.772 1.77299 663.644 1.77299C679.146 1.77299 691.73 6.45399 701.394 15.816L691.277 28.953C683.626 21.3023 673.912 17.477 662.134 17.477C656.899 17.477 652.721 18.6347 649.601 20.95C646.581 23.1647 645.071 26.1847 645.071 30.01C645.071 32.5267 646.128 34.6407 648.242 36.352C650.456 38.0633 653.275 39.4727 656.698 40.58C660.12 41.5867 663.895 42.5933 668.023 43.6C672.251 44.6067 676.428 45.865 680.556 47.375C684.784 48.7843 688.609 50.546 692.032 52.66C695.454 54.774 698.223 57.6933 700.337 61.418C702.551 65.1427 703.659 69.572 703.659 74.706C703.659 83.766 700.387 91.2153 693.844 97.054C687.3 102.893 677.586 105.812 664.701 105.812ZM730.348 22.158C727.731 22.158 725.415 21.2017 723.402 19.289C721.489 17.3763 720.533 15.061 720.533 12.343C720.533 9.625 721.489 7.30966 723.402 5.39699C725.415 3.48433 727.731 2.52799 730.348 2.52799C733.066 2.52799 735.381 3.48433 737.294 5.39699C739.207 7.30966 740.163 9.625 740.163 12.343C740.163 15.061 739.207 17.3763 737.294 19.289C735.381 21.2017 733.066 22.158 730.348 22.158ZM738.351 104H722.496V31.067H738.351V104ZM777.794 104H761.939V3.28299H777.794V104ZM834.3 105.812C823.025 105.812 813.965 102.138 807.12 94.789C800.274 87.3397 796.852 78.2293 796.852 67.458C796.852 56.6867 800.274 47.6267 807.12 40.278C813.965 32.9293 823.025 29.255 834.3 29.255C845.675 29.255 854.785 32.9293 861.631 40.278C868.476 47.6267 871.899 56.6867 871.899 67.458C871.899 78.33 868.476 87.4403 861.631 94.789C854.785 102.138 845.675 105.812 834.3 105.812ZM834.3 91.769C840.843 91.769 845.977 89.4537 849.702 84.823C853.527 80.0917 855.44 74.3033 855.44 67.458C855.44 60.7133 853.527 55.0257 849.702 50.395C845.977 45.6637 840.843 43.298 834.3 43.298C827.857 43.298 822.723 45.6637 818.898 50.395C815.173 55.0257 813.311 60.7133 813.311 67.458C813.311 74.3033 815.173 80.0917 818.898 84.823C822.723 89.4537 827.857 91.769 834.3 91.769Z" fill="#031B4E"/>
<path fill-rule="evenodd" clip-rule="evenodd" d="M0 31C0 13.8792 13.8792 0 31 0H129C146.121 0 160 13.8792 160 31V129C160 146.121 146.121 160 129 160H31C13.8792 160 0 146.121 0 129V31ZM110 63.0067C109.981 66.3173 96.1092 69 79 69C61.8792 69 48 66.3137 48 63V79.9166V79.9195C48 83.2776 61.8792 85.9999 79 85.9999C96.1208 85.9999 110 83.2776 110 79.9195V79.9166V63.0067ZM79 91C96.1092 91 109.981 88.3173 110 85.0067V102.034V102.034C110 105.329 96.1206 108 79 108C61.8793 108 48.0003 105.329 48 102.034V102.034V85C48 88.3137 61.8792 91 79 91ZM110 107C110 110.295 96.1208 112.966 79 112.966C61.8792 112.966 48 110.295 48 107V124.033V124.034C48 127.329 61.8792 130 79 130C96.1208 130 110 127.329 110 124.034V124.033V107ZM110 48L79 28L48 48V59C48 61.7614 61.8792 64 79 64C96.1208 64 110 61.7614 110 59V48Z" fill="#031B4E"/>
<path d="M233.079 155H222.911V127.653H233.079C237.316 127.653 240.76 128.924 243.411 131.466C246.062 134.008 247.388 137.302 247.388 141.347C247.388 145.365 246.062 148.645 243.411 151.187C240.787 153.729 237.343 155 233.079 155ZM233.079 150.777C235.949 150.777 238.231 149.875 239.926 148.071C241.621 146.267 242.468 144.026 242.468 141.347C242.468 138.586 241.634 136.318 239.967 134.541C238.327 132.764 236.031 131.876 233.079 131.876H227.708V150.777H233.079ZM262.064 155.492C259.003 155.492 256.543 154.494 254.684 152.499C252.826 150.476 251.896 148.003 251.896 145.078C251.896 142.153 252.826 139.693 254.684 137.698C256.543 135.703 259.003 134.705 262.064 134.705C265.153 134.705 267.627 135.703 269.485 137.698C271.344 139.693 272.273 142.153 272.273 145.078C272.273 148.03 271.344 150.504 269.485 152.499C267.627 154.494 265.153 155.492 262.064 155.492ZM262.064 151.679C263.841 151.679 265.235 151.05 266.246 149.793C267.285 148.508 267.804 146.937 267.804 145.078C267.804 143.247 267.285 141.702 266.246 140.445C265.235 139.16 263.841 138.518 262.064 138.518C260.315 138.518 258.921 139.16 257.882 140.445C256.871 141.702 256.365 143.247 256.365 145.078C256.365 146.937 256.871 148.508 257.882 149.793C258.921 151.05 260.315 151.679 262.064 151.679ZM306.436 155H302.131V142.085C302.131 139.707 301.052 138.518 298.892 138.518C297.99 138.518 297.116 138.778 296.268 139.297C295.421 139.816 294.765 140.431 294.3 141.142V155H289.995V142.085C289.995 139.707 288.902 138.518 286.715 138.518C285.841 138.518 284.98 138.778 284.132 139.297C283.312 139.816 282.656 140.445 282.164 141.183V155H277.859V135.197H282.164V137.903C282.656 137.165 283.504 136.454 284.706 135.771C285.936 135.06 287.235 134.705 288.601 134.705C291.471 134.705 293.275 135.921 294.013 138.354C294.642 137.37 295.571 136.523 296.801 135.812C298.031 135.074 299.343 134.705 300.737 134.705C304.537 134.705 306.436 136.7 306.436 140.691V155ZM329.643 155H325.338V152.868C323.807 154.617 321.675 155.492 318.942 155.492C317.138 155.492 315.539 154.918 314.145 153.77C312.751 152.595 312.054 150.982 312.054 148.932C312.054 146.827 312.737 145.228 314.104 144.135C315.498 143.042 317.11 142.495 318.942 142.495C321.757 142.495 323.889 143.342 325.338 145.037V142.085C325.338 140.937 324.914 140.035 324.067 139.379C323.219 138.723 322.099 138.395 320.705 138.395C318.491 138.395 316.536 139.229 314.842 140.896L313.079 137.903C315.32 135.771 318.094 134.705 321.402 134.705C323.834 134.705 325.816 135.279 327.347 136.427C328.877 137.575 329.643 139.393 329.643 141.88V155ZM320.623 152.54C322.782 152.54 324.354 151.857 325.338 150.49V147.497C324.354 146.13 322.782 145.447 320.623 145.447C319.393 145.447 318.381 145.775 317.589 146.431C316.796 147.087 316.4 147.948 316.4 149.014C316.4 150.08 316.796 150.941 317.589 151.597C318.381 152.226 319.393 152.54 320.623 152.54ZM338.586 132.778C337.875 132.778 337.247 132.518 336.7 131.999C336.181 131.48 335.921 130.851 335.921 130.113C335.921 129.375 336.181 128.746 336.7 128.227C337.247 127.708 337.875 127.448 338.586 127.448C339.324 127.448 339.953 127.708 340.472 128.227C340.991 128.746 341.251 129.375 341.251 130.113C341.251 130.851 340.991 131.48 340.472 131.999C339.953 132.518 339.324 132.778 338.586 132.778ZM340.759 155H336.454V135.197H340.759V155ZM365.245 155H360.94V142.618C360.94 139.885 359.614 138.518 356.963 138.518C355.924 138.518 354.954 138.778 354.052 139.297C353.15 139.816 352.425 140.445 351.879 141.183V155H347.574V135.197H351.879V137.903C352.617 137.028 353.601 136.277 354.831 135.648C356.061 135.019 357.4 134.705 358.849 134.705C360.953 134.705 362.539 135.252 363.605 136.345C364.698 137.438 365.245 139.01 365.245 141.06V155ZM378.831 155.492C375.278 155.492 372.449 154.467 370.344 152.417L372.312 149.301C373.05 150.066 374.048 150.722 375.305 151.269C376.563 151.816 377.806 152.089 379.036 152.089C380.294 152.089 381.25 151.843 381.906 151.351C382.59 150.859 382.931 150.217 382.931 149.424C382.931 148.713 382.521 148.167 381.701 147.784C380.881 147.374 379.884 147.06 378.708 146.841C377.533 146.595 376.358 146.308 375.182 145.98C374.007 145.625 373.009 145.01 372.189 144.135C371.369 143.26 370.959 142.126 370.959 140.732C370.959 139.037 371.656 137.616 373.05 136.468C374.444 135.293 376.344 134.705 378.749 134.705C381.783 134.705 384.353 135.634 386.457 137.493L384.653 140.527C384.025 139.816 383.191 139.242 382.152 138.805C381.114 138.368 379.993 138.149 378.79 138.149C377.67 138.149 376.768 138.381 376.084 138.846C375.428 139.283 375.1 139.857 375.1 140.568C375.1 141.115 375.387 141.566 375.961 141.921C376.563 142.249 377.301 142.495 378.175 142.659C379.077 142.823 380.048 143.055 381.086 143.356C382.125 143.629 383.082 143.957 383.956 144.34C384.858 144.723 385.596 145.351 386.17 146.226C386.772 147.073 387.072 148.112 387.072 149.342C387.072 151.146 386.348 152.622 384.899 153.77C383.451 154.918 381.428 155.492 378.831 155.492ZM396.858 154.631C396.284 155.178 395.615 155.451 394.849 155.451C394.084 155.451 393.414 155.178 392.84 154.631C392.266 154.057 391.979 153.374 391.979 152.581C391.979 151.788 392.266 151.119 392.84 150.572C393.414 149.998 394.084 149.711 394.849 149.711C395.615 149.711 396.284 149.998 396.858 150.572C397.432 151.119 397.719 151.788 397.719 152.581C397.719 153.374 397.432 154.057 396.858 154.631ZM428.918 155.492C424.818 155.492 421.402 154.18 418.668 151.556C415.935 148.905 414.568 145.502 414.568 141.347C414.568 137.192 415.935 133.803 418.668 131.179C421.402 128.528 424.818 127.202 428.918 127.202C433.674 127.202 437.337 129.252 439.906 133.352L435.806 135.443C435.123 134.268 434.153 133.311 432.895 132.573C431.665 131.835 430.34 131.466 428.918 131.466C426.212 131.466 423.957 132.395 422.153 134.254C420.377 136.113 419.488 138.477 419.488 141.347C419.488 144.217 420.377 146.581 422.153 148.44C423.957 150.299 426.212 151.228 428.918 151.228C430.367 151.228 431.706 150.859 432.936 150.121C434.166 149.383 435.123 148.426 435.806 147.251L439.906 149.342C437.282 153.442 433.62 155.492 428.918 155.492ZM462.565 155H458.26V142.536C458.26 141.087 457.904 140.062 457.194 139.461C456.51 138.832 455.526 138.518 454.242 138.518C453.23 138.518 452.274 138.778 451.372 139.297C450.47 139.816 449.732 140.445 449.158 141.183V155H444.853V127.653H449.158V137.903C449.896 137.028 450.88 136.277 452.11 135.648C453.367 135.019 454.72 134.705 456.169 134.705C460.433 134.705 462.565 136.796 462.565 140.978V155ZM478.528 155.492C475.522 155.492 473.034 154.535 471.066 152.622C469.126 150.681 468.155 148.167 468.155 145.078C468.155 142.181 469.098 139.734 470.984 137.739C472.898 135.716 475.303 134.705 478.2 134.705C481.125 134.705 483.476 135.716 485.252 137.739C487.056 139.762 487.958 142.345 487.958 145.488V146.513H472.665C472.829 148.071 473.472 149.369 474.592 150.408C475.713 151.447 477.175 151.966 478.979 151.966C479.991 151.966 481.002 151.775 482.013 151.392C483.052 151.009 483.913 150.476 484.596 149.793L486.564 152.622C484.569 154.535 481.89 155.492 478.528 155.492ZM483.776 143.479C483.722 142.112 483.216 140.896 482.259 139.83C481.33 138.764 479.977 138.231 478.2 138.231C476.506 138.231 475.18 138.764 474.223 139.83C473.267 140.869 472.734 142.085 472.624 143.479H483.776ZM509.838 155H505.533V152.868C504.002 154.617 501.87 155.492 499.137 155.492C497.333 155.492 495.734 154.918 494.34 153.77C492.946 152.595 492.249 150.982 492.249 148.932C492.249 146.827 492.932 145.228 494.299 144.135C495.693 143.042 497.305 142.495 499.137 142.495C501.952 142.495 504.084 143.342 505.533 145.037V142.085C505.533 140.937 505.109 140.035 504.262 139.379C503.414 138.723 502.294 138.395 500.9 138.395C498.686 138.395 496.731 139.229 495.037 140.896L493.274 137.903C495.515 135.771 498.289 134.705 501.597 134.705C504.029 134.705 506.011 135.279 507.542 136.427C509.072 137.575 509.838 139.393 509.838 141.88V155ZM500.818 152.54C502.977 152.54 504.549 151.857 505.533 150.49V147.497C504.549 146.13 502.977 145.447 500.818 145.447C499.588 145.447 498.576 145.775 497.784 146.431C496.991 147.087 496.595 147.948 496.595 149.014C496.595 150.08 496.991 150.941 497.784 151.597C498.576 152.226 499.588 152.54 500.818 152.54ZM527.309 155.492C524.685 155.492 522.567 154.412 520.954 152.253V162.544H516.649V135.197H520.954V137.903C522.539 135.771 524.658 134.705 527.309 134.705C529.906 134.705 532.01 135.634 533.623 137.493C535.263 139.352 536.083 141.88 536.083 145.078C536.083 148.276 535.263 150.818 533.623 152.704C532.01 154.563 529.906 155.492 527.309 155.492ZM526.038 151.679C527.733 151.679 529.086 151.064 530.097 149.834C531.108 148.604 531.614 147.019 531.614 145.078C531.614 143.137 531.108 141.566 530.097 140.363C529.086 139.133 527.733 138.518 526.038 138.518C525.054 138.518 524.084 138.778 523.127 139.297C522.17 139.816 521.446 140.445 520.954 141.183V149.014C521.446 149.752 522.17 150.381 523.127 150.9C524.084 151.419 525.054 151.679 526.038 151.679ZM546.712 153.442C546.712 154.809 546.357 156.107 545.646 157.337C544.963 158.594 544.033 159.633 542.858 160.453L540.931 158.854C541.614 158.444 542.243 157.87 542.817 157.132C543.391 156.394 543.746 155.683 543.883 155C543.637 155.082 543.405 155.123 543.186 155.123C542.475 155.123 541.888 154.891 541.423 154.426C540.958 153.934 540.726 153.305 540.726 152.54C540.726 151.775 540.999 151.119 541.546 150.572C542.093 149.998 542.749 149.711 543.514 149.711C544.389 149.711 545.14 150.053 545.769 150.736C546.398 151.392 546.712 152.294 546.712 153.442ZM573.565 155.492C570.558 155.492 568.071 154.535 566.103 152.622C564.162 150.681 563.192 148.167 563.192 145.078C563.192 142.181 564.135 139.734 566.021 137.739C567.934 135.716 570.34 134.705 573.237 134.705C576.162 134.705 578.512 135.716 580.289 137.739C582.093 139.762 582.995 142.345 582.995 145.488V146.513H567.702C567.866 148.071 568.508 149.369 569.629 150.408C570.75 151.447 572.212 151.966 574.016 151.966C575.027 151.966 576.039 151.775 577.05 151.392C578.089 151.009 578.95 150.476 579.633 149.793L581.601 152.622C579.606 154.535 576.927 155.492 573.565 155.492ZM578.813 143.479C578.758 142.112 578.253 140.896 577.296 139.83C576.367 138.764 575.014 138.231 573.237 138.231C571.542 138.231 570.217 138.764 569.26 139.83C568.303 140.869 567.77 142.085 567.661 143.479H578.813ZM604.874 155H600.569V152.868C599.039 154.617 596.907 155.492 594.173 155.492C592.369 155.492 590.77 154.918 589.376 153.77C587.982 152.595 587.285 150.982 587.285 148.932C587.285 146.827 587.969 145.228 589.335 144.135C590.729 143.042 592.342 142.495 594.173 142.495C596.989 142.495 599.121 143.342 600.569 145.037V142.085C600.569 140.937 600.146 140.035 599.298 139.379C598.451 138.723 597.33 138.395 595.936 138.395C593.722 138.395 591.768 139.229 590.073 140.896L588.31 137.903C590.552 135.771 593.326 134.705 596.633 134.705C599.066 134.705 601.048 135.279 602.578 136.427C604.109 137.575 604.874 139.393 604.874 141.88V155ZM595.854 152.54C598.014 152.54 599.585 151.857 600.569 150.49V147.497C599.585 146.13 598.014 145.447 595.854 145.447C594.624 145.447 593.613 145.775 592.82 146.431C592.028 147.087 591.631 147.948 591.631 149.014C591.631 150.08 592.028 150.941 592.82 151.597C593.613 152.226 594.624 152.54 595.854 152.54ZM618.451 155.492C614.897 155.492 612.068 154.467 609.964 152.417L611.932 149.301C612.67 150.066 613.667 150.722 614.925 151.269C616.182 151.816 617.426 152.089 618.656 152.089C619.913 152.089 620.87 151.843 621.526 151.351C622.209 150.859 622.551 150.217 622.551 149.424C622.551 148.713 622.141 148.167 621.321 147.784C620.501 147.374 619.503 147.06 618.328 146.841C617.152 146.595 615.977 146.308 614.802 145.98C613.626 145.625 612.629 145.01 611.809 144.135C610.989 143.26 610.579 142.126 610.579 140.732C610.579 139.037 611.276 137.616 612.67 136.468C614.064 135.293 615.963 134.705 618.369 134.705C621.403 134.705 623.972 135.634 626.077 137.493L624.273 140.527C623.644 139.816 622.81 139.242 621.772 138.805C620.733 138.368 619.612 138.149 618.41 138.149C617.289 138.149 616.387 138.381 615.704 138.846C615.048 139.283 614.72 139.857 614.72 140.568C614.72 141.115 615.007 141.566 615.581 141.921C616.182 142.249 616.92 142.495 617.795 142.659C618.697 142.823 619.667 143.055 620.706 143.356C621.744 143.629 622.701 143.957 623.576 144.34C624.478 144.723 625.216 145.351 625.79 146.226C626.391 147.073 626.692 148.112 626.692 149.342C626.692 151.146 625.967 152.622 624.519 153.77C623.07 154.918 621.047 155.492 618.451 155.492ZM631.394 162.749L632.05 158.895C632.542 159.114 633.088 159.223 633.69 159.223C635.084 159.223 636.027 158.649 636.519 157.501L637.503 155.246L629.385 135.197H633.977L639.758 150.039L645.539 135.197H650.172L640.619 158.567C639.443 161.492 637.175 162.981 633.813 163.036C632.911 163.036 632.104 162.94 631.394 162.749ZM682.265 155H677.96V152.868C676.429 154.617 674.297 155.492 671.564 155.492C669.76 155.492 668.161 154.918 666.767 153.77C665.373 152.595 664.676 150.982 664.676 148.932C664.676 146.827 665.359 145.228 666.726 144.135C668.12 143.042 669.733 142.495 671.564 142.495C674.379 142.495 676.511 143.342 677.96 145.037V142.085C677.96 140.937 677.536 140.035 676.689 139.379C675.842 138.723 674.721 138.395 673.327 138.395C671.113 138.395 669.159 139.229 667.464 140.896L665.701 137.903C667.942 135.771 670.717 134.705 674.024 134.705C676.457 134.705 678.438 135.279 679.969 136.427C681.5 137.575 682.265 139.393 682.265 141.88V155ZM673.245 152.54C675.404 152.54 676.976 151.857 677.96 150.49V147.497C676.976 146.13 675.404 145.447 673.245 145.447C672.015 145.447 671.004 145.775 670.211 146.431C669.418 147.087 669.022 147.948 669.022 149.014C669.022 150.08 669.418 150.941 670.211 151.597C671.004 152.226 672.015 152.54 673.245 152.54ZM706.748 155H702.443V142.618C702.443 139.885 701.117 138.518 698.466 138.518C697.427 138.518 696.457 138.778 695.555 139.297C694.653 139.816 693.928 140.445 693.382 141.183V155H689.077V135.197H693.382V137.903C694.12 137.028 695.104 136.277 696.334 135.648C697.564 135.019 698.903 134.705 700.352 134.705C702.456 134.705 704.042 135.252 705.108 136.345C706.201 137.438 706.748 139.01 706.748 141.06V155ZM731.814 155H727.509V152.294C725.869 154.426 723.751 155.492 721.154 155.492C718.558 155.492 716.439 154.563 714.799 152.704C713.159 150.845 712.339 148.317 712.339 145.119C712.339 141.948 713.159 139.42 714.799 137.534C716.439 135.648 718.558 134.705 721.154 134.705C723.751 134.705 725.869 135.785 727.509 137.944V127.653H731.814V155ZM722.384 151.679C723.396 151.679 724.38 151.433 725.336 150.941C726.293 150.449 727.017 149.82 727.509 149.055V141.183C727.017 140.418 726.293 139.789 725.336 139.297C724.38 138.778 723.396 138.518 722.384 138.518C720.69 138.518 719.337 139.133 718.325 140.363C717.314 141.593 716.808 143.178 716.808 145.119C716.808 147.06 717.314 148.645 718.325 149.875C719.337 151.078 720.69 151.679 722.384 151.679ZM757.148 155.492C753.594 155.492 750.765 154.467 748.661 152.417L750.629 149.301C751.367 150.066 752.364 150.722 753.622 151.269C754.879 151.816 756.123 152.089 757.353 152.089C758.61 152.089 759.567 151.843 760.223 151.351C760.906 150.859 761.248 150.217 761.248 149.424C761.248 148.713 760.838 148.167 760.018 147.784C759.198 147.374 758.2 147.06 757.025 146.841C755.849 146.595 754.674 146.308 753.499 145.98C752.323 145.625 751.326 145.01 750.506 144.135C749.686 143.26 749.276 142.126 749.276 140.732C749.276 139.037 749.973 137.616 751.367 136.468C752.761 135.293 754.66 134.705 757.066 134.705C760.1 134.705 762.669 135.634 764.774 137.493L762.97 140.527C762.341 139.816 761.507 139.242 760.469 138.805C759.43 138.368 758.309 138.149 757.107 138.149C755.986 138.149 755.084 138.381 754.401 138.846C753.745 139.283 753.417 139.857 753.417 140.568C753.417 141.115 753.704 141.566 754.278 141.921C754.879 142.249 755.617 142.495 756.492 142.659C757.394 142.823 758.364 143.055 759.403 143.356C760.441 143.629 761.398 143.957 762.273 144.34C763.175 144.723 763.913 145.351 764.487 146.226C765.088 147.073 765.389 148.112 765.389 149.342C765.389 151.146 764.664 152.622 763.216 153.77C761.767 154.918 759.744 155.492 757.148 155.492ZM780.095 155.492C777.088 155.492 774.601 154.535 772.633 152.622C770.692 150.681 769.722 148.167 769.722 145.078C769.722 142.181 770.665 139.734 772.551 137.739C774.464 135.716 776.869 134.705 779.767 134.705C782.691 134.705 785.042 135.716 786.819 137.739C788.623 139.762 789.525 142.345 789.525 145.488V146.513H774.232C774.396 148.071 775.038 149.369 776.159 150.408C777.279 151.447 778.742 151.966 780.546 151.966C781.557 151.966 782.568 151.775 783.58 151.392C784.618 151.009 785.479 150.476 786.163 149.793L788.131 152.622C786.135 154.535 783.457 155.492 780.095 155.492ZM785.343 143.479C785.288 142.112 784.782 140.896 783.826 139.83C782.896 138.764 781.543 138.231 779.767 138.231C778.072 138.231 776.746 138.764 775.79 139.83C774.833 140.869 774.3 142.085 774.191 143.479H785.343ZM804.024 155.492C801.017 155.492 798.557 154.522 796.644 152.581C794.731 150.613 793.774 148.112 793.774 145.078C793.774 142.071 794.731 139.598 796.644 137.657C798.557 135.689 801.017 134.705 804.024 134.705C807.331 134.705 809.86 135.88 811.609 138.231L808.78 140.855C807.687 139.297 806.17 138.518 804.229 138.518C802.425 138.518 800.976 139.133 799.883 140.363C798.79 141.566 798.243 143.137 798.243 145.078C798.243 147.019 798.79 148.604 799.883 149.834C800.976 151.064 802.425 151.679 804.229 151.679C806.115 151.679 807.632 150.9 808.78 149.342L811.609 151.966C809.86 154.317 807.331 155.492 804.024 155.492ZM834.285 155H829.98V152.376C828.121 154.453 825.784 155.492 822.969 155.492C818.732 155.492 816.614 153.401 816.614 149.219V135.197H820.919V147.661C820.919 149.11 821.26 150.148 821.944 150.777C822.627 151.378 823.611 151.679 824.896 151.679C825.934 151.679 826.905 151.433 827.807 150.941C828.709 150.449 829.433 149.834 829.98 149.096V135.197H834.285V155ZM845.411 155H841.106V135.197H845.411V138.108C846.177 137.124 847.133 136.318 848.281 135.689C849.429 135.06 850.618 134.746 851.848 134.746V139.01C851.466 138.928 851.015 138.887 850.495 138.887C849.593 138.887 848.623 139.16 847.584 139.707C846.573 140.226 845.849 140.828 845.411 141.511V155ZM865.693 155.492C862.687 155.492 860.199 154.535 858.231 152.622C856.291 150.681 855.32 148.167 855.32 145.078C855.32 142.181 856.263 139.734 858.149 137.739C860.063 135.716 862.468 134.705 865.365 134.705C868.29 134.705 870.641 135.716 872.417 137.739C874.221 139.762 875.123 142.345 875.123 145.488V146.513H859.83C859.994 148.071 860.637 149.369 861.757 150.408C862.878 151.447 864.34 151.966 866.144 151.966C867.156 151.966 868.167 151.775 869.178 151.392C870.217 151.009 871.078 150.476 871.761 149.793L873.729 152.622C871.734 154.535 869.055 155.492 865.693 155.492ZM870.941 143.479C870.887 142.112 870.381 140.896 869.424 139.83C868.495 138.764 867.142 138.231 865.365 138.231C863.671 138.231 862.345 138.764 861.388 139.83C860.432 140.869 859.899 142.085 859.789 143.479H870.941Z" fill="#00ADF2"/>
</svg>
