<?xml version="1.0" encoding="UTF-8" standalone="no"?>
<svg xmlns="http://www.w3.org/2000/svg" viewBox="0 0 300 120" preserveAspectRatio="xMidYMid meet">
  <!-- Namecheap logo with official orange color (#FF5C00) based on the provided image URL -->
  <!-- Made responsive by removing fixed width/height and adding preserveAspectRatio -->
  <g fill="#FF5C00" fill-rule="evenodd">
    <!-- Main logo shape - simplified version of the logo from the image -->
    <path d="M40,40 L40,80 L260,80 L260,40 L40,40 Z M50,50 L70,50 L70,70 L50,70 L50,50 Z"/>

    <!-- Text part - "NAMECHEAP" in a style similar to the image -->
    <path d="M85,45 L95,45 L100,65 L105,45 L115,45 L120,65 L125,45 L135,45 L125,75 L115,75 L110,55 L105,75 L95,75 L85,45 Z"/>
    <path d="M140,45 L150,45 L150,75 L140,75 L140,45 Z"/>
    <path d="M155,45 L165,45 L165,65 L180,65 L180,75 L155,75 L155,45 Z"/>
    <path d="M185,45 L210,45 L210,55 L195,55 L195,55 L195,60 L205,60 L205,65 L195,65 L195,75 L185,75 L185,45 Z"/>
    <path d="M215,45 L225,45 L235,60 L235,45 L245,45 L245,75 L235,75 L225,60 L225,75 L215,75 L215,45 Z"/>
  </g>
</svg>
