<svg xmlns="http://www.w3.org/2000/svg" viewBox="0 0 122.5 60" width="122.5" height="60">
  <!-- Official Namecheap logo based on brand guidelines -->
  <g transform="translate(25, 20)">
    <path d="M0,10.2h3.8V0h4.5v10.2h3.8V0h4.5v14.7h-4.5v-1.3c-1.1,1-2.5,1.6-4,1.6c-1.1,0-2.1-0.3-2.9-0.8c-1.1,0.5-2.3,0.8-3.6,0.8c-4.2,0-7.6-3.4-7.6-7.6V0H0V10.2z" fill="#FF5100"/>
    <path d="M22.8,0h4.5v1.3c1.1-1,2.5-1.6,4-1.6c3.8,0,6.9,3.1,6.9,6.9v8.1h-4.5V7.3c0-1.6-1.3-2.9-2.9-2.9c-1.6,0-2.9,1.3-2.9,2.9v7.4h-4.5V0H22.8z" fill="#FF5100"/>
    <path d="M40.1,7.3c0-4.1,3.3-7.4,7.4-7.4c4.1,0,7.4,3.3,7.4,7.4c0,4.1-3.3,7.4-7.4,7.4C43.4,14.7,40.1,11.4,40.1,7.3z M50.4,7.3c0-1.6-1.3-2.9-2.9-2.9c-1.6,0-2.9,1.3-2.9,2.9c0,1.6,1.3,2.9,2.9,2.9C49.1,10.2,50.4,8.9,50.4,7.3z" fill="#FF5100"/>
    <path d="M56.9,0h4.5v1.3c1.1-1,2.5-1.6,4-1.6c3.8,0,6.9,3.1,6.9,6.9v8.1h-4.5V7.3c0-1.6-1.3-2.9-2.9-2.9c-1.6,0-2.9,1.3-2.9,2.9v7.4h-4.5V0H56.9z" fill="#FF5100"/>
    <path d="M73.5,0h4.5v14.7h-4.5V0z" fill="#FF5100"/>
  </g>
</svg>
