<svg xmlns="http://www.w3.org/2000/svg" viewBox="0 0 122.5 60" width="122.5" height="60">
  <!-- Official Neteller logo based on brand guidelines -->
  <g transform="translate(30, 20)">
    <!-- Neteller logo in green -->
    <path d="M0,0.5h4.8l4.2,11.1h0.1l4.2-11.1h4.8v16.5h-3.2V5.3h-0.1L10.3,17h-2.5L3.3,5.3H3.2v11.7H0V0.5z" fill="#84BC41"/>
    <path d="M20.8,0.5h3.2v6.4h7.3V0.5h3.2v16.5h-3.2v-7.5h-7.3v7.5h-3.2V0.5z" fill="#84BC41"/>
    <path d="M38.1,0.5h3.2v16.5h-3.2V0.5z" fill="#84BC41"/>
    <path d="M44.1,0.5h3.2v13.9h8.1v2.6H44.1V0.5z" fill="#84BC41"/>
    <path d="M57.1,0.5h3.2v13.9h8.1v2.6H57.1V0.5z" fill="#84BC41"/>
    <path d="M70.1,0.5h11.3v2.6h-8.1v4.2h7.5v2.6h-7.5v4.5h8.1v2.6H70.1V0.5z" fill="#84BC41"/>
    <path d="M84.1,0.5h3.2v13.9h8.1v2.6H84.1V0.5z" fill="#84BC41"/>
  </g>
</svg>
