<svg xmlns="http://www.w3.org/2000/svg" viewBox="0 0 120 60" width="120" height="60">
  <g transform="translate(36, 18) scale(2.5)">
    <path d="M7.076 6.465c-.318 2.05-.171 3.7.506 4.732.76 1.161 2.142 1.67 3.931 1.67h.999c.242 0 .447.177.485.415l.646 4.108c.025.163.166.282.332.282h2.705c.186 0 .347-.135.376-.318l1.584-10.047c.02-.128-.02-.258-.11-.354-.09-.096-.217-.15-.35-.15H12.47c-1.006 0-1.766.205-2.342.627-.59.43-.96 1.082-1.143 2.035h-1.91z" fill="#253B80"/>
    <path d="M19.511 5.575l.205 1.3c-1.528-1.973-4.29-1.17-5.712-.748-.356.105-.654.21-.888.307-.025-.16-.063-.32-.11-.475-.318-1.035-1.09-1.738-2.186-1.984-.498-.112-1.09-.168-1.766-.168H3.376c-.186 0-.347.135-.376.318L1.416 14.172c-.02.128.02.258.11.354.09.096.217.15.35.15h2.705c.242 0 .447-.177.485-.415l.646-4.108c.025-.163.166-.282.332-.282h.999c1.789 0 3.17-.509 3.931-1.67.677-1.033.824-2.682.506-4.732h1.91c.183-.953.553-1.605 1.143-2.035.576-.422 1.336-.627 2.342-.627h2.705c.133 0 .26.054.35.15.09.096.13.226.11.354l-.129.818z" fill="#179BD7"/>
    <path d="M7.582 11.197c-.76-1.033-1.006-2.682-.506-4.732.183-.953.553-1.605 1.143-2.035.576-.422 1.336-.627 2.342-.627h5.054c.133 0 .26.054.35.15.09.096.13.226.11.354l-1.584 10.047c-.029.183-.19.318-.376.318h-2.705c-.166 0-.307-.12-.332-.282l-.646-4.108c-.038-.238-.243-.415-.485-.415h-.999c-1.789 0-3.17-.509-3.931-1.67-.083-.127-.156-.262-.22-.401.267.14.565.247.888.327.356.088.731.134 1.119.134h.999c.242 0 .447.177.485.415l.646 4.108c.025.163.166.282.332.282h2.705c.186 0 .347-.135.376-.318l1.584-10.047c.02-.128-.02-.258-.11-.354-.09-.096-.217-.15-.35-.15H12.47c-1.006 0-1.766.205-2.342.627-.59.43-.96 1.082-1.143 2.035h-1.91c-.318 2.05-.171 3.7.506 4.732z" fill="#222D65"/>
    <path d="M7.362 10.798c.064.14.137.274.22.401-.083-.127-.156-.262-.22-.401z" fill="#253B80"/>
  </g>
</svg>
