<svg xmlns="http://www.w3.org/2000/svg" viewBox="0 0 122.5 60" width="122.5" height="60">
  <!-- Official Skrill logo based on brand guidelines -->
  <g transform="translate(36, 20)">
    <!-- Skrill logo in dark blue -->
    <path d="M0,0.5h5.2c3.1,0,5.1,1.5,5.1,4.2c0,1.8-1,3-2.5,3.6c1.9,0.5,3.2,1.9,3.2,4c0,3-2.3,4.7-5.7,4.7H0V0.5z M4.9,6.9c1.5,0,2.3-0.7,2.3-1.9c0-1.2-0.8-1.9-2.3-1.9H3.1v3.8H4.9z M5.2,14.4c1.7,0,2.6-0.8,2.6-2.1c0-1.3-0.9-2.1-2.6-2.1H3.1v4.2H5.2z" fill="#092C74"/>
    <path d="M12.5,0.5h3.1v6.2h0.1l4.5-6.2h3.5l-4.8,6.4l5,10.1h-3.4l-3.6-7.5l-1.3,1.7v5.8h-3.1V0.5z" fill="#092C74"/>
    <path d="M25.1,0.5h3.1v6.7h0.1l4.2-6.7h3.4l-4.6,7l4.9,9.5h-3.5l-3.3-6.7l-1.2,1.8v4.9h-3.1V0.5z" fill="#092C74"/>
    <path d="M37.7,0.5h3.1v16.5h-3.1V0.5z" fill="#092C74"/>
    <path d="M43.3,0.5h3.1v13.9h5.7v2.6h-8.8V0.5z" fill="#092C74"/>
    <path d="M53.7,0.5h3.1v16.5h-3.1V0.5z" fill="#092C74"/>
  </g>
</svg>
