<svg xmlns="http://www.w3.org/2000/svg" viewBox="0 0 122.5 60" width="122.5" height="60">
  <path d="M51.8,22.3l-9.5,22.9h-5.5l-4.7-18c-0.3-1.1-0.5-1.5-1.4-2c-1.4-0.7-3.6-1.4-5.6-1.8l0.1-1.1h9.7c1.2,0,2.3,0.8,2.6,2.2 l2.4,12.6l5.9-14.8H51.8z" fill="#00579f"/>
  <path d="M53.4,37.1c0-5.8,8-6.1,8-8.7c0-0.8-0.8-1.6-2.4-1.8c-2-0.2-3.8,0.3-4.9,0.9l-0.9-3.9c1.1-0.5,3.2-1,5.3-1 c5,0,8.3,2.5,8.3,6.3c0,4.8-7,5.1-7,8.7c0,0.8,0.7,1.6,2.3,1.8c1.5,0.2,3.6-0.3,4.7-0.8l0.8,3.9c-1.1,0.5-2.9,0.9-4.9,0.9 C56.8,43.4,53.4,41,53.4,37.1z" fill="#00579f"/>
  <path d="M73.8,22.3c1,0,1.9,0.6,2.2,1.6l3.9,19.3h-4.9l-0.5-2.9h-6.1l-1,2.9h-4.3l7.1-19.3C70.5,22.9,72,22.3,73.8,22.3z M75.5,36.4l-1.4-7.7l-2.5,7.7H75.5z" fill="#00579f"/>
  <path d="M78.4,22.3h4.6l4.3,14.5l1-4.9c0.6-2.9,1.1-5.8,1.6-9.6h4.5c-0.9,5.3-1.9,10.5-3,15.8l-0.9,4.1h-4.9l-7.2-19.9z" fill="#00579f"/>
</svg>
