<?xml version="1.0" encoding="UTF-8"?>
<svg width="640" height="400" viewBox="0 0 320 200" xmlns="http://www.w3.org/2000/svg" role="img" aria-label="Blog placeholder image 33">
  <defs>
    <linearGradient id="grad-32" x1="0%" y1="0%" x2="100%" y2="100%">
      <stop offset="0%" stop-color="#fad961"/>
      <stop offset="100%" stop-color="#f76b1c"/>
    </linearGradient>
    <filter id="glow-32">
      <feGaussianBlur stdDeviation="20" result="coloredBlur"/>
      <feMerge>
        <feMergeNode in="coloredBlur"/>
        <feMergeNode in="SourceGraphic"/>
      </feMerge>
    </filter>
    <pattern id="noise-32" width="120" height="40" patternUnits="userSpaceOnUse">
      <path d="M0 15 Q25 0 50 15 T100 15 T200 15" stroke="rgba(255,255,255,0.14)" stroke-width="1.5" fill="none"/>
    </pattern>
  </defs>

  <rect width="320" height="200" fill="#2b1d0e"/>
  <rect width="320" height="200" fill="url(#grad-32)" opacity="0.95"/>
  <circle cx="120" cy="100" r="80" fill="#fad961" opacity="0.22" filter="url(#glow-32)"/>
  <circle cx="200" cy="130" r="60" fill="#f76b1c" opacity="0.22" filter="url(#glow-32)"/>
  <rect width="320" height="200" fill="url(#noise-32)" opacity="0.18"/>
  <rect x="32" y="140" width="256" height="32" rx="16" fill="rgba(0,0,0,0.25)" />
  <rect x="48" y="146" width="160" height="8" rx="4" fill="rgba(255,255,255,0.85)" />
  <rect x="48" y="160" width="112" height="6" rx="3" fill="rgba(255,255,255,0.55)" />
  <circle cx="48" cy="100" r="36" fill="rgba(0,0,0,0.2)" />
  <path d="M32 108 Q48 90 64 108" stroke="rgba(255,255,255,0.3)" stroke-width="5" fill="none" stroke-linecap="round"/>
  <path d="M38 94 Q48 80 58 94" stroke="rgba(255,255,255,0.35)" stroke-width="3" fill="none" stroke-linecap="round"/>
  <text x="32" y="36" fill="rgba(255,255,255,0.4)" font-family="Inter, Arial, sans-serif" font-size="12" letter-spacing="0.2em">JASAPEMBAYARAN</text>
  <text x="32" y="60" fill="rgba(255,255,255,0.85)" font-family="Inter, Arial, sans-serif" font-size="18" font-weight="700">Blog Highlight</text>
</svg>