<?xml version="1.0" encoding="UTF-8"?>
<svg width="640" height="400" viewBox="0 0 320 200" xmlns="http://www.w3.org/2000/svg" role="img" aria-label="Blog placeholder image 6">
  <defs>
    <linearGradient id="grad-5" x1="0%" y1="0%" x2="100%" y2="100%">
      <stop offset="0%" stop-color="#ffafbd"/>
      <stop offset="100%" stop-color="#ffc3a0"/>
    </linearGradient>
    <filter id="glow-5">
      <feGaussianBlur stdDeviation="25" result="coloredBlur"/>
      <feMerge>
        <feMergeNode in="coloredBlur"/>
        <feMergeNode in="SourceGraphic"/>
      </feMerge>
    </filter>
    <pattern id="noise-5" width="120" height="40" patternUnits="userSpaceOnUse">
      <path d="M0 10 Q15 0 30 10 T60 10 T120 10" stroke="rgba(255,255,255,0.14)" stroke-width="1.5" fill="none"/>
    </pattern>
  </defs>

  <rect width="320" height="200" fill="#312527"/>
  <rect width="320" height="200" fill="url(#grad-5)" opacity="0.95"/>
  <circle cx="80" cy="100" r="80" fill="#ffafbd" opacity="0.12" filter="url(#glow-5)"/>
  <circle cx="218" cy="118" r="60" fill="#ffc3a0" opacity="0.12" filter="url(#glow-5)"/>
  <rect width="320" height="200" fill="url(#noise-5)" opacity="0.18"/>
  <rect x="32" y="140" width="256" height="32" rx="16" fill="rgba(0,0,0,0.25)" />
  <rect x="48" y="146" width="220" height="8" rx="4" fill="rgba(255,255,255,0.85)" />
  <rect x="48" y="160" width="80" height="6" rx="3" fill="rgba(255,255,255,0.55)" />
  <circle cx="48" cy="100" r="36" fill="rgba(0,0,0,0.2)" />
  <path d="M32 108 Q48 86 64 108" stroke="rgba(255,255,255,0.3)" stroke-width="5" fill="none" stroke-linecap="round"/>
  <path d="M38 94 Q48 83 58 94" stroke="rgba(255,255,255,0.35)" stroke-width="3" fill="none" stroke-linecap="round"/>
  <text x="32" y="36" fill="rgba(255,255,255,0.4)" font-family="Inter, Arial, sans-serif" font-size="12" letter-spacing="0.2em">JASAPEMBAYARAN</text>
  <text x="32" y="60" fill="rgba(255,255,255,0.85)" font-family="Inter, Arial, sans-serif" font-size="18" font-weight="700">Blog Highlight</text>
</svg>