<?xml version="1.0" encoding="UTF-8"?>
<svg width="640" height="400" viewBox="0 0 320 200" xmlns="http://www.w3.org/2000/svg" role="img" aria-label="Blog placeholder image 52">
  <defs>
    <linearGradient id="grad-51" x1="0%" y1="0%" x2="100%" y2="100%">
      <stop offset="0%" stop-color="#ffd86f"/>
      <stop offset="100%" stop-color="#fc6262"/>
    </linearGradient>
    <filter id="glow-51">
      <feGaussianBlur stdDeviation="35" result="coloredBlur"/>
      <feMerge>
        <feMergeNode in="coloredBlur"/>
        <feMergeNode in="SourceGraphic"/>
      </feMerge>
    </filter>
    <pattern id="noise-51" width="120" height="40" patternUnits="userSpaceOnUse">
      <path d="M0 20 Q20 5 40 20 T80 20 T160 20" stroke="rgba(255,255,255,0.14)" stroke-width="1.5" fill="none"/>
    </pattern>
  </defs>

  <rect width="320" height="200" fill="#24120f"/>
  <rect width="320" height="200" fill="url(#grad-51)" opacity="0.95"/>
  <circle cx="100" cy="70" r="80" fill="#ffd86f" opacity="0.17" filter="url(#glow-51)"/>
  <circle cx="254" cy="118" r="60" fill="#fc6262" opacity="0.17" filter="url(#glow-51)"/>
  <rect width="320" height="200" fill="url(#noise-51)" opacity="0.18"/>
  <rect x="32" y="140" width="256" height="32" rx="16" fill="rgba(0,0,0,0.25)" />
  <rect x="48" y="146" width="180" height="8" rx="4" fill="rgba(255,255,255,0.85)" />
  <rect x="48" y="160" width="96" height="6" rx="3" fill="rgba(255,255,255,0.55)" />
  <circle cx="48" cy="100" r="36" fill="rgba(0,0,0,0.2)" />
  <path d="M32 108 Q48 88 64 108" stroke="rgba(255,255,255,0.3)" stroke-width="5" fill="none" stroke-linecap="round"/>
  <path d="M38 94 Q48 89 58 94" stroke="rgba(255,255,255,0.35)" stroke-width="3" fill="none" stroke-linecap="round"/>
  <text x="32" y="36" fill="rgba(255,255,255,0.4)" font-family="Inter, Arial, sans-serif" font-size="12" letter-spacing="0.2em">JASAPEMBAYARAN</text>
  <text x="32" y="60" fill="rgba(255,255,255,0.85)" font-family="Inter, Arial, sans-serif" font-size="18" font-weight="700">Blog Highlight</text>
</svg>