<svg xmlns="http://www.w3.org/2000/svg" width="100" height="100" viewBox="0 0 100 100" fill="none">
  <rect width="100" height="100" rx="8" fill="#F3F4F6" />
  <path d="M35 30H65C67.7614 30 70 32.2386 70 35V65C70 67.7614 67.7614 70 65 70H35C32.2386 70 30 67.7614 30 65V35C30 32.2386 32.2386 30 35 30Z" stroke="#D1D5DB" stroke-width="2" stroke-linecap="round" stroke-linejoin="round" />
  <path d="M40 45C42.7614 45 45 42.7614 45 40C45 37.2386 42.7614 35 40 35C37.2386 35 35 37.2386 35 40C35 42.7614 37.2386 45 40 45Z" fill="#D1D5DB" />
  <path d="M70 55L57.5 42.5C56.1193 41.1193 53.8807 41.1193 52.5 42.5L35 60" stroke="#D1D5DB" stroke-width="2" stroke-linecap="round" stroke-linejoin="round" />
</svg>
